<?xml version="1.0" encoding="UTF-8"?>
<svg id="Lag_2" data-name="Lag 2" xmlns="http://www.w3.org/2000/svg" viewBox="0 0 3278.66 4917.12">
  <defs>
    <style>
      .cls-1 {
        fill: none;
        stroke: #ddb0d3;
        stroke-miterlimit: 10;
        stroke-width: 4px;
      }
    </style>
  </defs>
  <g id="Lag_1-2" data-name="Lag 1">
    <path class="cls-1" d="M2594.23,4708.39c-161.69-5.45-346.41-260.67-331.12-494.25,30.22-461.68,831.02-672.66,768.97-934.48-29.7-125.32-218.51-99.6-382.29-306.16-124.08-156.5-145.5-334.97-156.38-580.32-28.61-645.62-54.45-1228.59,68.34-1249.47,224.3-38.14,968.56,1794.94,454.72,3036.88-64.07,154.85-221.18,534.58-422.24,527.8Z"/>
    <path class="cls-1" d="M1854.89,3147.63c-6.11,6.7-126.9,143.55-82.01,316.56,40.16,154.8,192.02,257.82,323.96,258.34,260.72,1.03,474.53-398.11,369.06-574.9-91.3-153.05-446.31-180.42-611.01,0Z"/>
    <path class="cls-1" d="M12.08,1038.16c38.04,239.29,159.85,273.17,236.94,504.42,125,374.99-128.06,499.56-71.55,898.3,74.09,522.73,554.68,713.01,451.16,987.06-69.31,183.49-295.35,126.22-393.1,348.28-92.01,209.01-123.7,465.84-18.31,675.91,134.99,269.05,408.49,353.52,554.78,398.7,572.79,176.9,1303.6-39.89,1337.03-303.2,27.28-214.86-400.3-535.56-746.39-484.27-347.69,51.53-483.09,459.22-599.78,408.74-125.34-54.22-118.93-589.43,132.47-745.46,159.73-99.13,344.77-.52,451.08-135.32,54.72-69.39,63.11-169.88,36.91-250.14-38.45-117.76-163.74-166.47-213.24-193.54-376.83-206.08-389.85-1233.29-181.75-1302.96,184.1-61.64,464.06,651.91,683.66,588.27,233.89-67.78-56.44-851.88,373.63-1415.02,420.17-550.18,1250.39-524.23,1230.7-743.03-8.63-95.83-175.46-185.09-308.56-178.64-175.42,8.5-209.44,179.25-405.87,250.51-180.07,65.33-272.07-34.4-592.32-89.75-376.44-65.05-797.41-21.97-822.25,85.19-24.98,107.77,371.46,190.88,373.63,373.63,2.57,216.74-550.1,517.99-886.66,357.73C317.71,922.82,328.89,428.77,190.72,437.28c-108.15,6.66-223.92,316.05-178.64,600.88Z"/>
    <path class="cls-1" d="M3097.12,1463.5c-108.36,14.4-224.05-224.49-267.78-357.8-5.14-15.66-112.06-349.96,0-418.62,92.3-56.55,319.96,75.2,397.7,264.86,87.95,214.58-18.67,496.77-129.92,511.56Z"/>
    <path class="cls-1" d="M1220.37,2346.49c94.08.5,183.77,95.5,164.05,181.02-17.06,74.04-111.6,121.39-192.34,101.83-70.8-17.15-137.89-87.42-124.45-166.13,12.49-73.18,88.33-117.06,152.74-116.72Z"/>
    <path class="cls-1" d="M1152.49,1407.43c-2,98.73,43.6,242.46,135.77,265.88,230.52,58.58,691.45-650.89,588.33-763.7-90.2-98.68-716.94,144.35-724.1,497.82Z"/>
    <path class="cls-1" d="M435.79,38.26c-107.5,87.23-82.17,349.4,67.88,441.25,68.65,42.02,175.54,55.81,260.22,0,94.63-62.37,121.36-185.18,96.17-273.21C810.45,32.88,546.27-51.38,435.79,38.26Z"/>
  </g>
</svg>