<?xml version="1.0" encoding="UTF-8"?>
<svg id="Lag_2" data-name="Lag 2" xmlns="http://www.w3.org/2000/svg" viewBox="0 0 3441.47 1443.42">
  <defs>
    <style>
      .cls-1 {
        fill: none;
        stroke: #7b5f7b;
        stroke-miterlimit: 10;
        stroke-width: 4px;
      }
    </style>
  </defs>
  <g id="Lag_1-2" data-name="Lag 1">
    <path class="cls-1" d="M.16,771.9c114.87-9.11,249.28-40.59,316.97-141.38,96.67-143.94-4.36-337.48,82.76-393.1,84.79-54.13,229.11,98.12,310.34,44.83,60.8-39.89,47.55-169.53,24.14-280.31"/>
    <path class="cls-1" d="M2555.05,1441.93c-202.19-182.56-229.67-298.72-210.34-373.48,62.4-241.39,639.83-155.57,797.39-499.81,53.3-116.45,67.48-301.62-28.43-434.67-55.51-77.01-131.79-114.21-179.31-132.03"/>
    <path class="cls-1" d="M1251.67,1.93c12.09,3.18,165.11,46.11,213.24,193.54,26.2,80.26,17.82,180.75-36.91,250.14-102.28,129.69-276.27,36.4-451.08,135.32-192.18,108.75-319.65,412.6-233.74,541.29,138.72,207.81,756.45-157.05,1160.5,168.13,66.8,53.76,109.88,111.99,135.32,151.57"/>
    <path class="cls-1" d="M1936.49,1.93c-12.16,14.15-123.88,148.57-82.01,316.56,40.27,161.57,199.42,261.08,323.96,258.34,186.38-4.09,389.89-239.24,369.06-574.9"/>
    <path class="cls-1" d="M3183.97,1441.93c108.55-114.77,122.38-193.17,110.32-245.89-20.03-87.59-113.04-110.98-110.32-192.73,1.86-55.83,47.68-118.44,113.96-135.32,75.75-19.3,136.36,31.79,142.23,36.91"/>
  </g>
</svg>